<?xml version="1.0" encoding="utf-8"?>
<!-- Generator: Adobe Illustrator 16.0.0, SVG Export Plug-In . SVG Version: 6.00 Build 0)  -->
<!DOCTYPE svg PUBLIC "-//W3C//DTD SVG 1.1//EN" "http://www.w3.org/Graphics/SVG/1.1/DTD/svg11.dtd">
<svg version="1.1" id="Layer_1" xmlns="http://www.w3.org/2000/svg" xmlns:xlink="http://www.w3.org/1999/xlink" x="0px" y="0px"
	 width="576px" height="576px" viewBox="727 -216 576 576" enable-background="new 727 -216 576 576" xml:space="preserve">
<g>
	<path fill="none" stroke="#000000" stroke-width="3" stroke-miterlimit="10" d="M1272.604,207.052
		c0,73.964-119.417,133.93-266.729,133.93l0,0c-147.304,0-266.722-59.966-266.722-133.93"/>
	
		<line fill="none" stroke="#000000" stroke-width="3" stroke-miterlimit="10" x1="1273.376" y1="207.052" x2="739.154" y2="207.441"/>
</g>
<path fill="#FFFFFF" stroke="#000000" stroke-width="3" stroke-miterlimit="10" d="M752.632,177.118l-2.249,29.174
	c0,0,103.251,64.357,510.285,0c0.173-0.027-0.011-52.374-0.011-52.374"/>
<path fill="none" stroke="#000000" stroke-width="3" stroke-miterlimit="10" d="M771.321,163.649c0,0,206.59,31.423,492.332-14.213"
	/>
<path fill="#FFFFFF" stroke="#000000" stroke-width="3" stroke-miterlimit="10" d="M757.113,80.605
	c0,0-68.237,127.223,22.447,89.029c28.434-11.968,21.699-129.436,102.503,17.963c25.397,46.321,75.019-2.387,84.553-56.868
	c5.237-29.921,43.604-37.16,46.392,57.612c1.497,50.885,79.312,53.875,89.786-17.198c7.617-51.724,88.29,53.114,95.025,0.74
	c16.654-129.542,61.349,14.217,89.034-7.485c43.58-34.146-13.465-81.553-26.186-83.793"/>
<g>
	<path fill="none" stroke="#000000" stroke-width="3" stroke-miterlimit="10" d="M751.875,79.849
		c0-142.562,115.57-258.135,258.133-258.135l0,0c142.562,0,258.136,115.573,258.136,258.135"/>
	<line fill="none" stroke="#000000" stroke-width="3" stroke-miterlimit="10" x1="751.127" y1="79.849" x2="1268.144" y2="79.101"/>
</g>
<path fill="none" stroke="#000000" stroke-width="3" stroke-miterlimit="10" d="M786.271,0.546c0,0,17.21-85.297,103.259-124.207
	c0.682-0.307,41.895,70.332,41.895,70.332S837.152-46.59,786.271,0.546z"/>
</svg>
