<?xml version="1.0" encoding="utf-8"?>
<!-- Generator: Adobe Illustrator 16.0.0, SVG Export Plug-In . SVG Version: 6.00 Build 0)  -->
<!DOCTYPE svg PUBLIC "-//W3C//DTD SVG 1.1//EN" "http://www.w3.org/Graphics/SVG/1.1/DTD/svg11.dtd">
<svg version="1.1" id="Layer_1" xmlns="http://www.w3.org/2000/svg" xmlns:xlink="http://www.w3.org/1999/xlink" x="0px" y="0px"
	 width="576px" height="576px" viewBox="-697 -221 576 576" enable-background="new -697 -221 576 576" xml:space="preserve">
<path fill="none" stroke="#000000" stroke-width="3" stroke-miterlimit="10" d="M-560.382-214.5h304.156
	c0,0,4.563,345.247-126.438,348.421c-1.089,0.022,9.134,180.51,9.134,180.51h106.422V348.5h-246.551v-34.069h91.318
	c0,0-3.151-180.475-4.917-180.51C-581.991,124.261-560.382-214.5-560.382-214.5z"/>
<polygon fill="none" stroke="#000000" stroke-width="3" stroke-miterlimit="10" points="-408.801,-190.607 -380.65,-133.553 
	-317.682,-124.403 -363.244,-79.994 -352.488,-17.28 -408.801,-46.888 -465.12,-17.28 -454.365,-79.994 -499.93,-124.403 
	-436.959,-133.553 "/>
<path fill="none" stroke="#000000" stroke-width="3" stroke-miterlimit="10" d="M-471.021,105.734c0,0-46.983-30.07-50.274-90.516
	c-0.021-0.486,51.749-8.728,51.749-8.728S-487.39,64.392-471.021,105.734z"/>
</svg>
